<svg width="42" height="42" viewBox="0 0 42 42" fill="none" xmlns="http://www.w3.org/2000/svg">
    <path d="M40.7695 19.7703H36.5261L34.4052 15.5286C34.3461 15.4103 34.2683 15.3023 34.1747 15.2089L29.4597 10.4939L27.0905 3.30695C26.9879 2.99572 26.7653 2.73823 26.4721 2.59164C24.6311 1.67133 22.0047 0.357515 21.5421 0.127171C20.9398 -0.168633 20.2008 0.073769 19.8976 0.684656L15.2032 10.1516L8.30616 12.4506C7.93874 12.5731 7.6504 12.8615 7.52793 13.2289L5.34745 19.7704H1.23047C0.550922 19.7704 0 20.3213 0 21.0008C0 21.6804 0.550922 22.2313 1.23047 22.2313H5.34745L7.52801 28.7727C7.69552 29.2752 8.16572 29.614 8.69531 29.614H12.9181L19.943 41.4003C20.3549 42.0914 21.3111 42.2088 21.8772 41.6332L26.7991 36.6293C26.9307 36.4956 27.0299 36.3335 27.0892 36.1556L27.629 34.5359H38.2266C38.9061 34.5359 39.457 33.985 39.457 33.3055C39.457 32.6259 38.9061 32.075 38.2266 32.075H28.4494L29.389 29.2562L33.855 27.0233C34.0931 26.9041 34.2862 26.711 34.4052 26.473L36.5261 22.2313H40.7695C41.4491 22.2313 42 21.6804 42 21.0008C42 20.3213 41.4491 19.7703 40.7695 19.7703ZM9.66804 14.5908L16.4672 12.3244C16.7781 12.2207 17.0349 11.9973 17.1805 11.7037L20.6126 4.7822L22.0994 10.7785L17.669 15.2089C17.3171 15.5608 17.2118 16.09 17.4023 16.5498C17.5928 17.0096 18.0415 17.3094 18.5391 17.3094H22.7004L23.9309 19.7704H7.94161L9.66804 14.5908ZM32.3875 25.0055L27.8325 27.283C27.5406 27.429 27.3186 27.6849 27.2155 27.9945L25.8553 32.0751H23.4609C22.7814 32.0751 22.2305 32.626 22.2305 33.3055C22.2305 33.9851 22.7814 34.536 23.4609 34.536H25.035L24.8447 35.1069L21.2407 38.771L14.6741 27.7537C14.4521 27.3812 14.0506 27.1532 13.6171 27.1532H9.58215L7.94153 22.2313C10.5483 22.2313 30.6068 22.2313 33.7746 22.2313L32.3875 25.0055ZM26.6823 19.7704L24.5615 15.5287C24.3531 15.1118 23.927 14.8485 23.4609 14.8485H21.5097L24.331 12.0271C24.636 11.7221 24.759 11.2796 24.6552 10.861L22.8364 3.52523L24.9136 4.56383L27.2142 11.5423C27.2744 11.7251 27.3767 11.8911 27.5128 12.0271L32.2934 16.8078L33.7747 19.7704H26.6823Z" fill="#1F2128"/>
</svg>
