<svg width="181" height="57" viewBox="0 0 181 57" fill="none" xmlns="http://www.w3.org/2000/svg">
    <path d="M84.6816 21.7227V30.3164C84.6816 32.1849 84.151 33.6335 83.0898 34.6621C82.0352 35.6842 80.5117 36.1953 78.5195 36.1953C76.5729 36.1953 75.0755 35.6973 74.0273 34.7012C72.9857 33.7051 72.4648 32.2728 72.4648 30.4043V21.7227H76.3418V30.1016C76.3418 31.1107 76.5306 31.8431 76.9082 32.2988C77.2858 32.7546 77.8424 32.9824 78.5781 32.9824C79.3659 32.9824 79.9355 32.7578 80.2871 32.3086C80.6452 31.8529 80.8242 31.1107 80.8242 30.082V21.7227H84.6816ZM90.7949 21.7422L90.9414 21.957C90.3424 24.3398 89.7663 26.166 89.2129 27.4355H86.498C86.9408 25.3717 87.2598 23.474 87.4551 21.7422H90.7949ZM96.5371 30.8047V36H92.6797V21.7227H97.3574C101.238 21.7227 103.178 23.1289 103.178 25.9414C103.178 27.5951 102.37 28.8743 100.756 29.7793L104.916 36H100.541L97.5137 30.8047H96.5371ZM96.5371 27.9043H97.2598C98.6074 27.9043 99.2812 27.3086 99.2812 26.1172C99.2812 25.1341 98.6204 24.6426 97.2988 24.6426H96.5371V27.9043ZM114.691 36H106.215V21.7227H114.691V24.8184H110.072V27.0645H114.35V30.1602H110.072V32.8555H114.691V36Z" fill="#5AEADC"/>
    <g clip-path="url(#clip0)">
        <path d="M55.7695 27.7703H51.5261L49.4052 23.5286C49.3461 23.4103 49.2683 23.3023 49.1747 23.2089L44.4597 18.4939L42.0905 11.3069C41.9879 10.9957 41.7653 10.7382 41.4721 10.5916C39.6311 9.67133 37.0047 8.35752 36.5421 8.12717C35.9398 7.83137 35.2008 8.07377 34.8976 8.68466L30.2032 18.1516L23.3062 20.4506C22.9387 20.5731 22.6504 20.8615 22.5279 21.2289L20.3475 27.7704H16.2305C15.5509 27.7704 15 28.3213 15 29.0008C15 29.6804 15.5509 30.2313 16.2305 30.2313H20.3475L22.528 36.7727C22.6955 37.2752 23.1657 37.614 23.6953 37.614H27.9181L34.943 49.4003C35.3549 50.0914 36.3111 50.2088 36.8772 49.6332L41.7991 44.6293C41.9307 44.4956 42.0299 44.3335 42.0892 44.1556L42.629 42.5359H53.2266C53.9061 42.5359 54.457 41.985 54.457 41.3055C54.457 40.6259 53.9061 40.075 53.2266 40.075H43.4494L44.389 37.2562L48.855 35.0233C49.0931 34.9041 49.2862 34.711 49.4052 34.473L51.5261 30.2313H55.7695C56.4491 30.2313 57 29.6804 57 29.0008C57 28.3213 56.4491 27.7703 55.7695 27.7703ZM24.668 22.5908L31.4672 20.3244C31.7781 20.2207 32.0349 19.9973 32.1805 19.7037L35.6126 12.7822L37.0994 18.7785L32.669 23.2089C32.3171 23.5608 32.2118 24.09 32.4023 24.5498C32.5928 25.0096 33.0415 25.3094 33.5391 25.3094H37.7004L38.9309 27.7704H22.9416L24.668 22.5908ZM47.3875 33.0055L42.8325 35.283C42.5406 35.429 42.3186 35.6849 42.2155 35.9945L40.8553 40.0751H38.4609C37.7814 40.0751 37.2305 40.626 37.2305 41.3055C37.2305 41.9851 37.7814 42.536 38.4609 42.536H40.035L39.8447 43.1069L36.2407 46.771L29.6741 35.7537C29.4521 35.3812 29.0506 35.1532 28.6171 35.1532H24.5822L22.9415 30.2313C25.5483 30.2313 45.6068 30.2313 48.7746 30.2313L47.3875 33.0055ZM41.6823 27.7704L39.5615 23.5287C39.3531 23.1118 38.927 22.8485 38.4609 22.8485H36.5097L39.331 20.0271C39.636 19.7221 39.759 19.2796 39.6552 18.861L37.8364 11.5252L39.9136 12.5638L42.2142 19.5423C42.2744 19.7251 42.3767 19.8911 42.5128 20.0271L47.2934 24.8078L48.7747 27.7704H41.6823Z" fill="#5AEADC"/>
        <path d="M26.1562 40.0737H18.7734C18.0939 40.0737 17.543 40.6247 17.543 41.3042C17.543 41.9837 18.0939 42.5347 18.7734 42.5347H26.1562C26.8358 42.5347 27.3867 41.9837 27.3867 41.3042C27.3867 40.6247 26.8358 40.0737 26.1562 40.0737Z" fill="#5AEADC"/>
        <path d="M55.7695 32.6909H53.2266C52.547 32.6909 51.9961 33.2418 51.9961 33.9214C51.9961 34.6009 52.547 35.1519 53.2266 35.1519H55.7695C56.4491 35.1519 57 34.6009 57 33.9214C57 33.2418 56.4491 32.6909 55.7695 32.6909Z" fill="#5AEADC"/>
        <path d="M18.7734 35.1519H16.2305C15.5509 35.1519 15 35.7028 15 36.3823C15 37.0619 15.5509 37.6128 16.2305 37.6128H18.7734C19.453 37.6128 20.0039 37.0619 20.0039 36.3823C20.0039 35.7028 19.453 35.1519 18.7734 35.1519Z" fill="#5AEADC"/>
        <path d="M38.4609 32.6909H33.5391C32.8595 32.6909 32.3086 33.2418 32.3086 33.9214C32.3086 34.6009 32.8595 35.1519 33.5391 35.1519H38.4609C39.1405 35.1519 39.6914 34.6009 39.6914 33.9214C39.6914 33.2418 39.1405 32.6909 38.4609 32.6909Z" fill="#5AEADC"/>
    </g>
    <defs>
        <clipPath id="clip0">
            <rect width="42" height="42" fill="white" transform="translate(15 8)"/>
        </clipPath>
    </defs>
</svg>
